# xmcd
#
# Track frame offsets:
#	150
#	16816
#	33165
#	49352
#	64250
#
# Disc length: 1092 seconds
#
# Revision: 0
# Processed by: cddbd v1.5.2PL0 Copyright (c) Steve Scherf et al.
# Submitted via: FairStars CD Ripper 1.90
#
DISCID=3a044205
DTITLE=Strung Like a Horse - Glad
DYEAR=2013
DGENRE=Folk Rock
TTITLE0=Gypsy Lane
TTITLE1=Hard Again
TTITLE2=Andy's Song
TTITLE3=Byrd Dog
TTITLE4=Glad
EXTD=
EXTT0=
EXTT1=
EXTT2=
EXTT3=
EXTT4=
PLAYORDER=
